<svg width="2172" height="1181" viewBox="0 0 2172 1181" fill="none" xmlns="http://www.w3.org/2000/svg">
<path d="M309.5 410H8V589.5V769.5H309.5V1172.5H2163.5V8H309.5V410Z" fill="#605555"/>
<path d="M8 589.5H319M8 410H309.5V8H2163.5V1172.5H309.5V769.5H8V410Z" stroke="white" stroke-width="16"/>
<path d="M144.5 475L99 502L144.5 529.5V515.5H217.5V488.5H144.5V475Z" fill="white" stroke="white" stroke-width="2"/>
<path d="M172 650.5L217.5 677.5L172 705V691H99V664H172V650.5Z" fill="white" stroke="white" stroke-width="2"/>
<path d="M325 7.5L450 417.5" stroke="white" stroke-width="16"/>
<path d="M586 7.5L726.5 417.5" stroke="white" stroke-width="16"/>
<path d="M588 7.5L724.5 413.5" stroke="white" stroke-width="16"/>
<path d="M849 7.5L989.5 417.5" stroke="white" stroke-width="16"/>
<path d="M852 7.5L988.5 413.5" stroke="white" stroke-width="16"/>
<path d="M1113 7.5L1253.5 417.5" stroke="white" stroke-width="16"/>
<path d="M1116 7.5L1252.5 413.5" stroke="white" stroke-width="16"/>
<path d="M1377 7.5L1517.5 417.5" stroke="white" stroke-width="16"/>
<path d="M1380 7.5L1516.5 413.5" stroke="white" stroke-width="16"/>
<path d="M1641 7.5L1781.5 417.5" stroke="white" stroke-width="16"/>
<path d="M1644 7.5L1780.5 413.5" stroke="white" stroke-width="16"/>
<path d="M1905 7.5L2045.5 417.5" stroke="white" stroke-width="16"/>
<path d="M2042.5 763L1917.5 1173" stroke="white" stroke-width="16"/>
<path d="M1781.5 763L1641 1173" stroke="white" stroke-width="16"/>
<path d="M1779.5 763L1643 1169" stroke="white" stroke-width="16"/>
<path d="M1518.5 763L1378 1173" stroke="white" stroke-width="16"/>
<path d="M1515.5 763L1379 1169" stroke="white" stroke-width="16"/>
<path d="M1254.5 763L1114 1173" stroke="white" stroke-width="16"/>
<path d="M1251.5 763L1115 1169" stroke="white" stroke-width="16"/>
<path d="M990.5 763L850 1173" stroke="white" stroke-width="16"/>
<path d="M987.5 763L851 1169" stroke="white" stroke-width="16"/>
<path d="M726.5 763L586 1173" stroke="white" stroke-width="16"/>
<path d="M723.5 763L587 1169" stroke="white" stroke-width="16"/>
<path d="M462.5 763L322 1173" stroke="white" stroke-width="16"/>
</svg>
