<svg width="2172" height="1181" viewBox="0 0 2172 1181" fill="none" xmlns="http://www.w3.org/2000/svg">
<path d="M309.5 410H8V589.5V769.5H309.5V1172.5H2163.5V8H309.5V410Z" fill="#605555"/>
<path d="M8 589.5H319M808 165V410M1326.5 165V410M1796.5 165V410M755 410H854.5M1275 410H1376M1747.5 410H1842.5M808 1016V769.5M1326.5 1016V769.5M1796.5 1016V769.5M755 769.5H854.5M1275 769.5H1376M1747.5 769.5H1842.5M8 410H309.5V8H2163.5V1172.5H309.5V769.5H8V410Z" stroke="white" stroke-width="16"/>
<path d="M316.5 162H2156.5M316.5 1021.5H2156.5" stroke="white" stroke-width="16"/>
<path d="M339 589.5H393" stroke="white" stroke-width="16"/>
<path d="M414 589.5H468" stroke="white" stroke-width="16"/>
<path d="M491 589.5H545" stroke="white" stroke-width="16"/>
<path d="M566 589.5H620" stroke="white" stroke-width="16"/>
<path d="M643 589.5H697" stroke="white" stroke-width="16"/>
<path d="M718 589.5H772" stroke="white" stroke-width="16"/>
<path d="M795 589.5H849" stroke="white" stroke-width="16"/>
<path d="M870 589.5H924" stroke="white" stroke-width="16"/>
<path d="M945 589.5H999" stroke="white" stroke-width="16"/>
<path d="M1020 589.5H1074" stroke="white" stroke-width="16"/>
<path d="M1097 589.5H1151" stroke="white" stroke-width="16"/>
<path d="M1172 589.5H1226" stroke="white" stroke-width="16"/>
<path d="M1249 589.5H1303" stroke="white" stroke-width="16"/>
<path d="M1324 589.5H1378" stroke="white" stroke-width="16"/>
<path d="M1401 589.5H1455" stroke="white" stroke-width="16"/>
<path d="M1476 589.5H1530" stroke="white" stroke-width="16"/>
<path d="M1552 589.5H1606" stroke="white" stroke-width="16"/>
<path d="M1627 589.5H1681" stroke="white" stroke-width="16"/>
<path d="M1704 589.5H1758" stroke="white" stroke-width="16"/>
<path d="M1779 589.5H1833" stroke="white" stroke-width="16"/>
<path d="M1856 589.5H1910" stroke="white" stroke-width="16"/>
<path d="M1931 589.5H1985" stroke="white" stroke-width="16"/>
<path d="M2008 589.5H2062" stroke="white" stroke-width="16"/>
<path d="M2083 589.5H2137" stroke="white" stroke-width="16"/>
<path d="M153.42 475.5L106 502.5L153.42 530V516H229.5V489H153.42V475.5Z" fill="white" stroke="white" stroke-width="2"/>
<path d="M182.08 651L229.5 678L182.08 705.5V691.5H106V664.5H182.08V651Z" fill="white" stroke="white" stroke-width="2"/>
<rect x="316" y="15" width="1840" height="139" fill="#D9D9D9"/>
<rect x="317" y="1029" width="1840" height="136" fill="#D9D9D9"/>
</svg>
