<svg width="2172" height="1181" viewBox="0 0 2172 1181" fill="none" xmlns="http://www.w3.org/2000/svg">
<path d="M309.5 410H8V589.5V769.5H309.5V1172.5H2163.5V8H309.5V410Z" fill="#605555"/>
<path d="M543.5 420.5V15.5M773.5 420.5V15.5M1005 420.5V15.5M1234.5 420.5V15.5M1466 420.5V15.5M1697 420.5V15.5M1926.5 420.5V15.5M543.5 760.5V1167M773.5 760.5V1167M1005.5 760.5V1167M1234.5 760.5V1167M1466 760.5V1167M1697 760.5V1167M1927 760.5V1167M8 589.5H319M8 410H309.5V8H2163.5V1172.5H309.5V769.5H8V410Z" stroke="white" stroke-width="16"/>
<path d="M144.5 475.5L99 502.5L144.5 530V516H217.5V489H144.5V475.5Z" fill="white" stroke="white" stroke-width="2"/>
<path d="M172 651L217.5 678L172 705.5V691.5H99V664.5H172V651Z" fill="white" stroke="white" stroke-width="2"/>
</svg>
