<svg width="338" height="604" viewBox="0 0 338 604" fill="none" xmlns="http://www.w3.org/2000/svg">
<path d="M208.066 20.286L230.958 36.0157C232.33 36.7644 233.359 36.9289 233.359 36.9289C248.104 35.6519 248.95 43.1067 249.966 49.0412L261.94 117.764C266.521 147.48 268.9 198.13 261.994 211.108L262.746 353.072L271.866 348.268C276.441 345.462 277.163 351.489 276.953 354.853C277.481 360.955 267.757 371.617 259.96 378.85L260.283 399.96L260.816 423.502C261.057 426.291 258.675 433.557 257.454 436.841L260.761 457.634C265.165 496.9 261.239 515.307 257.226 532.719C255.861 534.342 253.385 534.724 252.331 534.146L253.064 542.615C250.613 554.872 219.08 575.168 201.332 582.728L155.892 591.18C155.411 591.271 153.999 591.367 153.222 591.294C153.067 591.28 152.937 591.258 152.845 591.229L107.683 583.408C89.8434 576.07 58.0604 556.167 55.4566 543.941L56.0847 535.465C55.0381 536.056 52.5573 535.705 51.1722 534.098C46.9434 516.738 42.7884 498.381 46.7042 459.063L49.7518 438.231C48.4899 434.962 46.0177 427.726 46.2246 424.934L46.4651 401.387L46.5252 380.275C38.6384 373.14 28.7827 362.599 29.2353 356.491C28.9829 353.13 29.6306 347.095 34.2402 349.843L43.4187 354.534L42.4053 212.571C35.3384 199.68 37.0876 149.005 41.2987 119.234L52.4176 50.3676C53.3595 44.4209 54.1132 36.9562 68.8727 38.0498L91.607 22.1863C123.058 10.4782 173.642 11.2176 208.066 20.286Z" fill="#1E5185"/>
<path d="M230.966 36.021L208.066 20.286C173.642 11.2176 123.058 10.4782 91.607 22.1863L68.8727 38.0498C54.1131 36.9562 53.3595 44.4209 52.4176 50.3676L41.2987 119.234C37.0876 149.005 35.3384 199.68 42.4053 212.571L43.4187 354.534L34.2402 349.843C29.6306 347.095 28.9829 353.13 29.2353 356.491C28.7827 362.599 38.6384 373.14 46.5252 380.275L46.4651 401.387L46.2246 424.934C46.0177 427.726 48.4899 434.962 49.7518 438.231L46.7042 459.063C42.7884 498.381 46.9434 516.738 51.1722 534.098C52.5573 535.705 55.0381 536.056 56.0847 535.465L55.4566 543.941C58.0604 556.167 89.8434 576.07 107.683 583.408L153.225 591.295M229.158 34.7833C231.323 36.6033 233.359 36.9289 233.359 36.9289C248.104 35.6519 248.95 43.1067 249.966 49.0412L261.94 117.764C266.521 147.48 268.9 198.13 261.994 211.108L262.746 353.072L271.866 348.268C276.441 345.462 277.163 351.489 276.953 354.853C277.481 360.955 267.757 371.617 259.96 378.85L260.283 399.96L260.816 423.502C261.057 426.291 258.675 433.557 257.454 436.841L260.761 457.634C265.165 496.9 261.239 515.307 257.226 532.719C255.861 534.342 253.385 534.724 252.331 534.146L253.064 542.615C250.613 554.872 219.08 575.168 201.332 582.728L155.892 591.18C155.301 591.292 153.307 591.411 152.809 591.216" stroke="black"/>
<path d="M230.966 36.021L208.066 20.286C173.642 11.2176 123.058 10.4782 91.607 22.1863L68.8727 38.0498C54.1131 36.9562 53.3595 44.4209 52.4176 50.3676L41.2987 119.234C37.0876 149.005 35.3384 199.68 42.4053 212.571L43.4187 354.534M43.4187 354.534L34.2402 349.843C29.6306 347.095 28.9829 353.13 29.2353 356.491C28.7827 362.599 38.6384 373.14 46.5252 380.275M43.4187 354.534L52.4863 360.721L51.5627 373.187C51.7043 373.532 52.4713 374.457 54.4067 375.403C56.1673 378.709 56.3088 383.566 51.7103 384.729C50.2106 383.515 48.425 381.994 46.5252 380.275M46.5252 380.275L46.4651 401.387L46.2246 424.934C46.0177 427.726 48.4899 434.962 49.7518 438.231L46.7042 459.063C42.7884 498.381 46.9434 516.738 51.1722 534.098C52.5573 535.705 55.0381 536.056 56.0847 535.465L55.4566 543.941C58.0604 556.167 89.8434 576.07 107.683 583.408L153.225 591.295M262.746 353.072L261.994 211.108C268.9 198.13 266.521 147.48 261.94 117.764L249.966 49.0412C248.95 43.1067 248.104 35.6519 233.359 36.9289C233.359 36.9289 231.323 36.6033 229.158 34.7833M262.746 353.072L271.866 348.268C276.441 345.462 277.163 351.489 276.953 354.853C277.481 360.955 267.757 371.617 259.96 378.85M262.746 353.072L253.756 359.371L254.835 371.825C254.697 372.171 253.942 373.107 252.018 374.076C250.299 377.404 250.218 382.262 254.831 383.368C256.315 382.136 258.082 380.592 259.96 378.85M259.96 378.85L260.283 399.96L260.816 423.502C261.057 426.291 258.675 433.557 257.454 436.841L260.761 457.634C265.165 496.9 261.239 515.307 257.226 532.719C255.861 534.342 253.385 534.724 252.331 534.146L253.064 542.615C250.613 554.872 219.08 575.168 201.332 582.728L155.892 591.18C155.301 591.292 153.307 591.411 152.809 591.216" stroke="black"/>
<path d="M54.0896 441.405L63.5386 423.021L86.5978 440.095C89.8455 442.825 95.5373 444.802 98.9845 444.041C117.698 439.911 162.847 433.893 193.736 442.862C198.24 444.646 209.129 446.748 216.65 440.877L242.298 424.101L251.908 442.34L245.84 517.143C241.866 546.596 186.259 582.528 152.884 585.418C124.226 579.034 65.359 556.462 59.1527 517.251L54.0896 441.405Z" fill="#1E5185"/>
<path d="M63.1631 422.728C60.543 421.449 55.8352 416.361 58.628 406.885L75.7613 338.15C139.199 365.98 203.622 350.33 227.904 339.026L245.684 405.239C247.673 414.301 245.145 422.077 242.481 423.985M63.5386 423.021L54.0896 441.405L59.1527 517.251C65.359 556.462 124.226 579.034 152.884 585.418C186.259 582.528 241.866 546.596 245.84 517.143L251.908 442.34L242.298 424.101L216.65 440.877C209.129 446.748 198.24 444.646 193.736 442.862C162.847 433.893 117.698 439.911 98.9845 444.041C95.5373 444.802 89.8455 442.825 86.5978 440.095L63.5386 423.021Z" stroke="black"/>
<path d="M216.97 440.89L242.599 424.112C245.262 422.204 247.992 414.315 246.003 405.252L228.224 339.04C203.942 350.343 139.519 365.994 76.0808 338.164L58.9475 406.898C56.1548 416.375 61.238 421.756 63.8581 423.035L86.9173 440.109C90.165 442.839 95.8568 444.816 99.304 444.055C118.017 439.925 163.167 433.907 194.056 442.875C198.56 444.66 209.448 446.761 216.97 440.89Z" fill="#D9D9D9" stroke="black"/>
<path d="M87.5225 85.6939L84.941 160.194C108.023 154.348 167.569 146.514 221.1 161.953L214.457 85.24C194.939 76.2237 142.228 63.6917 87.5225 85.6939Z" fill="#D9D9D9" stroke="black"/>
<path d="M79.9465 322.732C83.6313 272.56 90.3255 171.372 85.1136 162.187C147.643 148.24 202.195 158.07 220.277 164.032C218.143 171.845 221.256 273.857 225.614 324.168C225.959 328.153 225.927 335.517 226.779 337.618C201.154 348.871 143.735 363.881 76.1731 337.111C77.8048 336.635 79.3159 331.318 79.9465 322.732Z" fill="#1E5185" stroke="black"/>
<path d="M232.206 52.5868C215.277 30.9668 129.241 5.29459 73.8692 49.738L76.5008 80.1241L85.8555 83.8308C109.986 72.7073 167.165 60.729 217.901 84.4399L228.471 79.0075L232.206 52.5868Z" fill="#1E5185" stroke="black"/>
<path d="M56.9022 230.341L56.8959 218.833C59.3783 208.989 62.4485 195.853 65.4583 181.455C67.2575 181.968 71.0887 185.685 72.0206 196.445L73.4121 305.23C73.6278 307.721 72.2824 315.365 71.5018 317.942L56.9886 387.956L56.9022 230.341Z" fill="#D9D9D9"/>
<path d="M68.8056 37.6297C74.4694 42.7601 74.5412 47.8395 73.8692 49.7379C40.2428 90.2905 48.4274 180.659 48.4689 227.496M42.752 223.571C52.5381 232.259 65.5327 231.636 71.8791 229.58M76.5008 80.1242C80.4817 99.4156 73.1683 144.573 65.4583 181.455M56.9886 387.956L56.8959 218.833C59.3783 208.989 62.4485 195.853 65.4583 181.455M56.9886 387.956L71.5018 317.942C72.2824 315.365 73.6278 307.721 73.4121 305.23L72.0206 196.445C71.0887 185.685 67.2575 181.968 65.4583 181.455M56.9886 387.956L55.8984 398.547M60.4284 398.699C54.3645 398.22 49.0654 398.847 46.5238 400.405" stroke="black"/>
<path d="M248.922 231.944L248.914 219.937C246.419 210.096 243.333 196.963 240.306 182.569C238.507 183.085 234.68 186.806 233.762 197.567L232.503 306.354C232.29 308.845 233.645 316.488 234.429 319.064L249.027 389.06L248.922 231.944Z" fill="#D9D9D9"/>
<path d="M238.881 36.9525C233.224 42.0899 231.06 48.9653 231.734 50.8628C265.41 91.3744 257.335 181.752 257.351 228.59M261.745 225.725C251.97 234.425 240.292 232.75 233.944 230.703M228.471 79.0076C224.514 98.3039 232.551 145.697 240.306 182.569M249.027 389.06L248.914 219.937C246.419 210.096 243.333 196.963 240.306 182.569M249.027 389.06L234.429 319.064C233.645 316.488 232.29 308.845 232.503 306.354L233.762 197.567C234.68 186.806 238.507 183.085 240.306 182.569M249.027 389.06L250.131 399.649M244.738 400.116C250.801 399.63 257.912 400.397 260.455 401.952" stroke="black"/>
<path d="M125.754 440.217L125.855 586.253L149.828 590.701L149.665 438.147C143.189 438.707 129.653 438.876 125.754 440.217Z" fill="white"/>
<path d="M125.074 154.209L125.633 351.898C129.748 353.048 143.868 353.832 149.348 353.358L149.071 153.135C142.011 152.743 132.503 153.064 125.074 154.209Z" fill="white"/>
<path d="M124.581 15.2336L124.777 75.4413C133.7 74.1666 141.172 73.5195 148.687 73.3705L148.535 13.661C140.478 13.355 131.555 14.6297 124.581 15.2336Z" fill="white"/>
<path d="M125.754 440.217L125.855 586.253L149.828 590.701L149.665 438.147C143.189 438.707 129.653 438.876 125.754 440.217Z" stroke="black"/>
<path d="M125.074 154.209L125.633 351.898C129.748 353.048 143.868 353.832 149.348 353.358L149.071 153.135C142.011 152.743 132.503 153.064 125.074 154.209Z" stroke="black"/>
<path d="M124.581 15.2336L124.777 75.4413C133.7 74.1666 141.172 73.5195 148.687 73.3705L148.535 13.661C140.478 13.355 131.555 14.6297 124.581 15.2336Z" stroke="black"/>
<path d="M179.922 440.556L180.572 586.59L156.662 590.663L156.001 438.608C163.201 437.984 176.132 439.04 179.922 440.556Z" fill="white"/>
<path d="M179.173 154.05L179.82 351.722C175.291 352.451 163.95 353.569 155.91 353.793L155.092 153.115C164.599 152.794 174.237 153.967 179.173 154.05Z" fill="white"/>
<path d="M178.951 15.0734L179.065 75.2813C176.43 74.9828 164.259 73.5275 155.144 73.3334L155.054 13.5983C164.605 13.7748 174.199 14.4496 178.951 15.0734Z" fill="white"/>
<path d="M179.922 440.556L180.572 586.59L156.662 590.663L156.001 438.608C163.201 437.984 176.132 439.04 179.922 440.556Z" stroke="black"/>
<path d="M179.173 154.05L179.82 351.722C175.291 352.451 163.95 353.569 155.91 353.793L155.092 153.115C164.599 152.794 174.237 153.967 179.173 154.05Z" stroke="black"/>
<path d="M178.951 15.0734L179.065 75.2813C176.43 74.9828 164.259 73.5275 155.144 73.3334L155.054 13.5983C164.605 13.7748 174.199 14.4496 178.951 15.0734Z" stroke="black"/>
<path d="M147.297 132.753L132.455 152.607L148.524 152.721C153.486 146.269 151.474 140.421 159.272 137.738C165.891 135.461 165.737 141.695 179.911 138.46C186.257 136.405 191.99 129.585 194.384 120.143L208.756 83.2654C208.215 82.8104 206.725 81.8353 205.097 81.5748L201.523 80.8805L184.12 117.519C181.757 123.077 174.312 132.922 163.433 127.842C158.236 125.783 154.975 124.058 147.297 132.753Z" fill="#F7F7F7" stroke="black"/>
<path d="M105.616 416.407C98.987 420.996 85.7938 432.076 81.7209 436.042L67.7771 425.707L91.217 406.613C94.1418 403.683 106.863 390.244 122.039 397.419C128.318 400.388 142.065 403.815 146.816 393.768L171.39 352.995C174.379 352.737 180.854 352.176 193.676 349.56L187.695 361.621L178.203 379.506L164.831 404.754C160.995 412.615 145.314 416.984 131.691 416.156C123.051 414.897 117.336 406.86 105.616 416.407Z" fill="#F0F0F0" stroke="black"/>
<path d="M81.5216 497.316L77.6505 484.249L66.2176 487.636L64.3742 481.414L94.5154 472.484L94.7919 473.418L96.3588 478.707L85.6188 481.888L94.8359 512.999L86.8675 515.36L81.5216 497.316Z" fill="#D9D9D9" stroke="black"/>
</svg>
